<?xml version="1.0" encoding="utf-8"?>
<!DOCTYPE svg PUBLIC "-//W3C//DTD SVG 1.0//EN" "http://www.w3.org/TR/2001/REC-SVG-20010904/DTD/svg10.dtd">
<svg version="1.0" xmlns="http://www.w3.org/2000/svg" width="120px" height="120px" viewBox="0 0 680 590" preserveAspectRatio="xMidYMid meet">
<g><path style="opacity:1" fill="#fefefe" d="M -0.5,-0.5 C 166.167,-0.5 332.833,-0.5 499.5,-0.5C 499.5,166.167 499.5,332.833 499.5,499.5C 332.833,499.5 166.167,499.5 -0.5,499.5C -0.5,332.833 -0.5,166.167 -0.5,-0.5 Z"/></g>
<g><path style="opacity:1" fill="#979998" d="M 333.5,157.5 C 272.167,157.5 210.833,157.5 149.5,157.5C 149.173,167.348 149.506,177.014 150.5,186.5C 150.5,188.167 150.5,189.833 150.5,191.5C 149.167,193.5 149.167,195.5 150.5,197.5C 150.5,198.5 150.5,199.5 150.5,200.5C 149.508,207.982 149.175,215.648 149.5,223.5C 148.503,201.34 148.169,179.006 148.5,156.5C 210.336,156.168 272.002,156.501 333.5,157.5 Z"/></g>
<g><path style="opacity:1" fill="#1c2120" d="M 333.5,157.5 C 333.5,179.5 333.5,201.5 333.5,223.5C 272.167,223.5 210.833,223.5 149.5,223.5C 149.175,215.648 149.508,207.982 150.5,200.5C 151.673,202.504 153.34,204.004 155.5,205C 161.167,205.667 166.833,205.667 172.5,205C 176.51,202.675 177.51,199.341 175.5,195C 174.167,194.333 172.833,193.667 171.5,193C 165.738,192.691 160.072,191.858 154.5,190.5C 154.33,189.178 154.663,188.011 155.5,187C 160.5,186.333 165.5,186.333 170.5,187C 171.416,187.278 172.082,187.778 172.5,188.5C 173.552,190.256 175.219,190.923 177.5,190.5C 177.737,189.209 177.404,188.209 176.5,187.5C 173.129,183.205 168.629,181.538 163,182.5C 160.5,182.667 158,182.833 155.5,183C 153.119,183.223 151.453,184.39 150.5,186.5C 149.506,177.014 149.173,167.348 149.5,157.5C 210.833,157.5 272.167,157.5 333.5,157.5 Z"/></g>
<g><path style="opacity:1" fill="#efefef" d="M 176.5,187.5 C 175.789,189.842 174.456,190.175 172.5,188.5C 172.082,187.778 171.416,187.278 170.5,187C 165.5,186.333 160.5,186.333 155.5,187C 154.663,188.011 154.33,189.178 154.5,190.5C 160.072,191.858 165.738,192.691 171.5,193C 172.833,193.667 174.167,194.333 175.5,195C 177.51,199.341 176.51,202.675 172.5,205C 166.833,205.667 161.167,205.667 155.5,205C 153.34,204.004 151.673,202.504 150.5,200.5C 150.5,199.5 150.5,198.5 150.5,197.5C 153.108,197.606 155.108,198.772 156.5,201C 161.5,201.667 166.5,201.667 171.5,201C 172.925,199.286 172.592,197.953 170.5,197C 165.201,196.07 159.867,195.403 154.5,195C 152.676,194.34 151.343,193.173 150.5,191.5C 150.5,189.833 150.5,188.167 150.5,186.5C 151.453,184.39 153.119,183.223 155.5,183C 158,182.833 160.5,182.667 163,182.5C 168.629,181.538 173.129,183.205 176.5,187.5 Z"/></g>
<g><path style="opacity:1" fill="#f6f6f6" d="M 206.5,196.5 C 207.485,192.366 207.818,188.032 207.5,183.5C 208.5,183.5 209.5,183.5 210.5,183.5C 210.5,188.167 210.5,192.833 210.5,197.5C 209.857,200.988 207.857,203.488 204.5,205C 186.146,208.474 179.146,200.974 183.5,182.5C 184.833,182.5 186.167,182.5 187.5,182.5C 187.334,187.179 187.501,191.845 188,196.5C 188.513,198.521 189.68,200.021 191.5,201C 195.926,201.791 200.259,201.457 204.5,200C 205.823,199.184 206.489,198.017 206.5,196.5 Z"/></g>
<g><path style="opacity:1" fill="#bbbcbc" d="M 210.5,197.5 C 210.5,192.833 210.5,188.167 210.5,183.5C 209.5,183.5 208.5,183.5 207.5,183.5C 207.818,188.032 207.485,192.366 206.5,196.5C 206.5,191.833 206.5,187.167 206.5,182.5C 208.167,182.5 209.833,182.5 211.5,182.5C 211.821,187.695 211.487,192.695 210.5,197.5 Z"/></g>
<g><path style="opacity:1" fill="#fefefe" d="M 223.5,201.5 C 229.31,202.49 235.31,202.823 241.5,202.5C 241.5,203.5 241.5,204.5 241.5,205.5C 234.167,205.5 226.833,205.5 219.5,205.5C 219.5,198.167 219.5,190.833 219.5,183.5C 220.5,183.5 221.5,183.5 222.5,183.5C 222.177,189.69 222.51,195.69 223.5,201.5 Z"/></g>
<g><path style="opacity:1" fill="#959796" d="M 223.5,201.5 C 222.51,195.69 222.177,189.69 222.5,183.5C 221.5,183.5 220.5,183.5 219.5,183.5C 219.5,190.833 219.5,198.167 219.5,205.5C 218.508,198.018 218.175,190.352 218.5,182.5C 220.167,182.5 221.833,182.5 223.5,182.5C 223.5,188.833 223.5,195.167 223.5,201.5 Z"/></g>
<g><path style="opacity:1" fill="#f4f4f4" d="M 243.5,182.5 C 252.167,182.5 260.833,182.5 269.5,182.5C 269.5,183.833 269.5,185.167 269.5,186.5C 265.833,186.5 262.167,186.5 258.5,186.5C 258.5,192.833 258.5,199.167 258.5,205.5C 257.167,205.5 255.833,205.5 254.5,205.5C 254.5,199.167 254.5,192.833 254.5,186.5C 250.833,186.5 247.167,186.5 243.5,186.5C 243.5,185.167 243.5,183.833 243.5,182.5 Z"/></g>
<g><path style="opacity:1" fill="#f1f1f1" d="M 281.5,182.5 C 283.467,182.261 285.301,182.594 287,183.5C 290.833,190.5 294.667,197.5 298.5,204.5C 295.787,205.948 293.787,205.281 292.5,202.5C 286.833,201.167 281.167,201.167 275.5,202.5C 274.278,205.089 272.278,205.923 269.5,205C 273.907,197.684 277.907,190.184 281.5,182.5 Z"/></g>
<g><path style="opacity:1" fill="#f2f2f2" d="M 303.5,182.5 C 305.527,182.338 307.527,182.505 309.5,183C 314.667,188.833 319.833,194.667 325,200.5C 325.499,194.509 325.666,188.509 325.5,182.5C 326.833,182.5 328.167,182.5 329.5,182.5C 329.5,190.167 329.5,197.833 329.5,205.5C 327.473,205.662 325.473,205.495 323.5,205C 318.333,199.167 313.167,193.333 308,187.5C 307.501,193.491 307.334,199.491 307.5,205.5C 306.167,205.5 304.833,205.5 303.5,205.5C 303.5,197.833 303.5,190.167 303.5,182.5 Z"/></g>
<g><path style="opacity:1" fill="#242928" d="M 283.5,187.5 C 285.725,190.262 287.725,193.262 289.5,196.5C 285.878,197.659 282.211,197.825 278.5,197C 280.32,193.859 281.986,190.692 283.5,187.5 Z"/></g>
<g><path style="opacity:1" fill="#989a99" d="M 176.5,187.5 C 177.404,188.209 177.737,189.209 177.5,190.5C 175.219,190.923 173.552,190.256 172.5,188.5C 174.456,190.175 175.789,189.842 176.5,187.5 Z"/></g>
<g><path style="opacity:1" fill="#232827" d="M 150.5,191.5 C 151.343,193.173 152.676,194.34 154.5,195C 159.867,195.403 165.201,196.07 170.5,197C 172.592,197.953 172.925,199.286 171.5,201C 166.5,201.667 161.5,201.667 156.5,201C 155.108,198.772 153.108,197.606 150.5,197.5C 149.167,195.5 149.167,193.5 150.5,191.5 Z"/></g>
<g><path style="opacity:1" fill="#b1b2b2" d="M 223.5,201.5 C 229.833,201.5 236.167,201.5 242.5,201.5C 242.768,203.099 242.434,204.432 241.5,205.5C 241.5,204.5 241.5,203.5 241.5,202.5C 235.31,202.823 229.31,202.49 223.5,201.5 Z"/></g>
<g><path style="opacity:1" fill="#242928" d="M 131.5,265.5 C 133.604,265.201 135.604,265.534 137.5,266.5C 141.141,272.795 145.141,278.795 149.5,284.5C 153.583,278.669 157.416,272.669 161,266.5C 163.041,265.577 165.208,265.244 167.5,265.5C 167.5,273.5 167.5,281.5 167.5,289.5C 166.167,289.5 164.833,289.5 163.5,289.5C 163.666,283.158 163.5,276.825 163,270.5C 159.415,276.002 156.081,281.669 153,287.5C 150.925,289.648 148.592,289.982 146,288.5C 142.919,282.669 139.585,277.002 136,271.5C 135.501,277.491 135.334,283.491 135.5,289.5C 134.167,289.5 132.833,289.5 131.5,289.5C 131.5,281.5 131.5,273.5 131.5,265.5 Z"/></g>
<g><path style="opacity:1" fill="#272b2b" d="M 185.5,265.5 C 187.604,265.201 189.604,265.534 191.5,266.5C 195.5,273.833 199.5,281.167 203.5,288.5C 200.554,290.092 198.554,289.258 197.5,286C 191.5,285.333 185.5,285.333 179.5,286C 178.446,289.258 176.446,290.092 173.5,288.5C 177.781,280.937 181.781,273.271 185.5,265.5 Z"/></g>
<g><path style="opacity:1" fill="#282d2c" d="M 209.5,265.5 C 210.833,265.5 212.167,265.5 213.5,265.5C 213.5,268.833 213.5,272.167 213.5,275.5C 220.5,275.5 227.5,275.5 234.5,275.5C 234.5,272.167 234.5,268.833 234.5,265.5C 235.833,265.5 237.167,265.5 238.5,265.5C 238.5,273.5 238.5,281.5 238.5,289.5C 237.167,289.5 235.833,289.5 234.5,289.5C 234.5,286.167 234.5,282.833 234.5,279.5C 227.5,279.5 220.5,279.5 213.5,279.5C 213.5,282.833 213.5,286.167 213.5,289.5C 212.167,289.5 210.833,289.5 209.5,289.5C 209.5,281.5 209.5,273.5 209.5,265.5 Z"/></g>
<g><path style="opacity:1" fill="#272b2a" d="M 281.5,289.5 C 281.666,283.158 281.5,276.825 281,270.5C 280.283,271.044 279.783,271.711 279.5,272.5C 276.56,277.947 273.393,283.28 270,288.5C 268,289.833 266,289.833 264,288.5C 260.607,283.28 257.44,277.947 254.5,272.5C 254.217,271.711 253.717,271.044 253,270.5C 252.5,276.825 252.334,283.158 252.5,289.5C 251.167,289.5 249.833,289.5 248.5,289.5C 248.5,281.5 248.5,273.5 248.5,265.5C 250.924,265.192 253.257,265.526 255.5,266.5C 259.084,272.669 262.917,278.669 267,284.5C 271.083,278.669 274.916,272.669 278.5,266.5C 280.743,265.526 283.076,265.192 285.5,265.5C 285.5,273.5 285.5,281.5 285.5,289.5C 284.167,289.5 282.833,289.5 281.5,289.5 Z"/></g>
<g><path style="opacity:1" fill="#292e2d" d="M 293.5,265.5 C 295.167,265.5 296.833,265.5 298.5,265.5C 298.334,270.844 298.501,276.177 299,281.5C 301.536,284.766 304.869,286.1 309,285.5C 312.981,286.216 315.981,284.882 318,281.5C 318.499,276.177 318.666,270.844 318.5,265.5C 320.167,265.5 321.833,265.5 323.5,265.5C 327.427,284.739 319.761,292.572 300.5,289C 298.376,287.878 296.543,286.378 295,284.5C 293.584,278.285 293.084,271.952 293.5,265.5 Z"/></g>
<g><path style="opacity:1" fill="#222726" d="M 332.5,265.5 C 339.841,265.334 347.174,265.5 354.5,266C 360.737,267.297 363.404,271.131 362.5,277.5C 363.283,284.885 359.949,288.719 352.5,289C 345.842,289.5 339.175,289.666 332.5,289.5C 332.5,281.5 332.5,273.5 332.5,265.5 Z"/></g>
<g><path style="opacity:1" fill="#fbfbfb" d="M 336.5,269.5 C 342.509,269.334 348.509,269.501 354.5,270C 357.901,271.32 359.235,273.82 358.5,277.5C 359.235,281.18 357.901,283.68 354.5,285C 348.509,285.499 342.509,285.666 336.5,285.5C 336.5,280.167 336.5,274.833 336.5,269.5 Z"/></g>
<g><path style="opacity:1" fill="#e9e9e9" d="M 187.5,270.5 C 190.281,273.35 192.614,276.683 194.5,280.5C 190.5,281.833 186.5,281.833 182.5,280.5C 184.18,277.14 185.847,273.807 187.5,270.5 Z"/></g>
<g><path style="opacity:1" fill="#a0a3a2" d="M 254.5,272.5 C 253.833,278.167 253.167,283.833 252.5,289.5C 252.334,283.158 252.5,276.825 253,270.5C 253.717,271.044 254.217,271.711 254.5,272.5 Z"/></g>
<g><path style="opacity:1" fill="#b0b2b1" d="M 281.5,289.5 C 280.833,283.833 280.167,278.167 279.5,272.5C 279.783,271.711 280.283,271.044 281,270.5C 281.5,276.825 281.666,283.158 281.5,289.5 Z"/></g>
</svg>
