<?xml version="1.0" encoding="utf-8"?>
<!DOCTYPE svg PUBLIC "-//W3C//DTD SVG 1.0//EN" "http://www.w3.org/TR/2001/REC-SVG-20010904/DTD/svg10.dtd">
<svg version="1.0" xmlns="http://www.w3.org/2000/svg" width="80px" height="80px" viewBox="0 0 680 590" preserveAspectRatio="xMidYMid meet">
 <g fill="#000000">
  <path d="M568.50 413.70 c-11.95 -1.85 -18.45 -7.45 -18.65 -16.05 l-0.10 -3.40 5.20 0 5.20 0 0.55 1.60 c1.80 5.25 7.40 7.40 19.30 7.40 7.95 0 12.60 -0.75 15.15 -2.45 4.80 -3.25 -0.40 -5.25 -18.75 -7.35 -18.55 -2.05 -24.15 -4.10 -26 -9.40 -0.95 -2.75 -0.80 -10.45 0.25 -12.35 1.20 -2.30 4.60 -5.05 7.55 -6.15 6.80 -2.50 25.30 -3.50 34.95 -1.80 10.45 1.80 15.85 6.80 15.85 14.65 l0 3.10 -5.50 0 c-5.05 0 -5.50 -0.10 -5.50 -0.95 0 -1.35 -1.80 -3.45 -3.90 -4.50 -3.10 -1.60 -7.50 -2.25 -15.10 -2.25 -7.90 0 -13.50 0.95 -16.45 2.75 -1.60 0.95 -1.65 1.05 -0.75 2 1.60 1.80 7.90 3.05 23.45 4.70 13.70 1.45 19.60 3.60 22.10 8 0.95 1.70 1.15 2.75 1.15 7.15 0 5.30 -0.40 6.75 -2.60 9.55 -3.35 4.30 -11.20 6.10 -26.40 6 -5.35 -0.05 -10.30 -0.15 -11 -0.25z"/>
  <path d="M64 388.50 l0 -25 7.15 0 7.20 0 10.55 17.40 c5.80 9.55 10.85 17.75 11.25 18.30 0.60 0.85 1.55 -0.55 10.60 -15.25 5.45 -8.90 10.55 -17.15 11.35 -18.30 l1.45 -2.15 6.95 0 7 0 0.10 23 c0.05 12.65 0.10 23.85 0.15 24.90 l0 1.85 -5.50 0 -5.50 0 -0.25 -15.75 -0.25 -15.75 -9.70 15.90 -9.75 15.85 -6.10 0 -6.10 0 -9.80 -16.10 -9.80 -16.10 0 16.10 0 16.10 -5.50 0 -5.50 0 0 -25z"/>
  <path d="M154.50 413.15 c-0.05 -0.25 -0.05 -11.40 -0.05 -24.90 l0 -24.50 26.15 0 26.15 0 0 4.75 0 4.75 -20.75 0.25 -20.75 0.25 -0.15 5.15 -0.15 5.10 18.55 0 18.50 0 0 5 0 5 -18.35 0.10 -18.40 0.15 0 4.50 0 4.50 20.75 0.25 20.75 0.25 0 4.75 0 4.75 -26.10 0.15 c-14.40 0.05 -26.15 -0.05 -26.15 -0.25z"/>
  <path d="M218.50 413.15 c-0.05 -0.25 -0.05 -11.40 -0.05 -24.90 l0 -24.50 17.15 -0.15 c17.35 -0.15 24.20 0.25 29.65 1.65 7.05 1.80 11.75 5.45 13.85 10.65 1.05 2.65 1.15 3.55 1.15 13.10 0 8.80 -0.15 10.55 -0.90 12.50 -2.80 6.80 -9.10 10.20 -21.35 11.50 -5.50 0.55 -39.50 0.70 -39.50 0.15z m43.25 -12.10 c5.90 -1.95 7.75 -4.75 7.75 -11.85 0 -5.15 -1.05 -8.25 -3.60 -10.45 -3.50 -2.95 -7.05 -3.75 -19.40 -4.40 -5.90 -0.25 -12.25 -0.35 -14.10 -0.15 l-3.40 0.40 0 14 0 14 14.65 -0.20 c13.50 -0.20 14.85 -0.30 18.10 -1.35z"/>
  <path d="M294 413.25 c-0.05 -0.15 -0.05 -11.35 -0.05 -24.85 l-0.05 -24.65 5.30 -0.15 5.30 -0.15 0.10 23.05 c0.05 12.65 0.10 23.85 0.15 24.90 l0 1.85 -5.35 0.15 c-3 0.05 -5.40 0 -5.40 -0.15z"/>
  <path d="M334 393.75 l0 -19.75 -11.50 0 -11.50 0 0 -5.25 0 -5.25 28.40 0.10 28.35 0.15 0.15 5.15 0.15 5.10 -11.55 0 -11.50 0 -0.10 19.65 -0.15 19.60 -5.35 0.15 -5.40 0.15 0 -19.80z"/>
  <path d="M365 411.85 c0 -1.05 0.80 -3.05 2.15 -5.40 1.15 -2.05 6.95 -12.55 12.85 -23.35 l10.75 -19.55 6 -0.05 6 0 11.70 21.40 c6.45 11.75 12.25 22.20 12.95 23.25 0.75 1.25 1.10 2.50 1 3.50 l-0.15 1.60 -5.95 0 -5.95 0 -2.30 -4.10 -2.30 -4.15 -15 0 -15 0 -2.30 4.15 -2.30 4.10 -6.10 0.15 -6.05 0.15 0 -1.70z m38.95 -20.95 c-1.05 -2 -3.15 -5.80 -4.55 -8.45 l-2.60 -4.85 -2.95 5.35 c-1.60 2.90 -3.70 6.70 -4.65 8.45 l-1.75 3.10 9.25 0 9.25 0 -2 -3.60z"/>
  <path d="M448.85 413.15 c-0.20 -0.15 -0.35 -9.05 -0.35 -19.75 l0 -19.40 -11.15 0 -11.20 0 -0.30 -4.80 c-0.20 -2.65 -0.20 -5 -0.05 -5.25 0.15 -0.25 12.90 -0.45 28.50 -0.45 l28.20 0 0 5.25 0 5.25 -11.50 0 -11.50 0 0 19.75 0 19.75 -5.15 0 c-2.85 0 -5.35 -0.15 -5.50 -0.35z"/>
  <path d="M489 388.50 l0 -25 26.25 0 26.25 0 0 5 0 5 -20.75 0 -20.75 0 0 5.25 0 5.25 18.25 0 18.25 0 0 5 0 5 -18.25 0 -18.25 0 0 4.75 0 4.75 20.75 0 20.75 0 0 5 0 5 -26.25 0 -26.25 0 0 -25z"/>
  <path d="M159.75 283.90 c-0.15 -0.35 -0.20 -30.45 -0.15 -66.90 l0.15 -66.25 1.90 0.05 c1 0 82.35 0.05 180.75 0.10 l178.85 0.10 -0.10 66.60 -0.10 66.65 -180.55 0.15 c-144.15 0.10 -180.60 0 -180.75 -0.50z m205.55 -35.45 c7.20 -1.25 11.45 -3.55 13.15 -7.10 2.75 -5.65 0 -10.65 -7.20 -13 -3.60 -1.20 -6.50 -1.70 -17.05 -2.85 -11.15 -1.20 -16 -2.15 -17.70 -3.45 -1.10 -0.80 -1.25 -1.30 -1.25 -4.10 l0 -3.20 2 -1.10 c2.95 -1.60 7.95 -2.25 18 -2.25 13.30 0 18 1.30 19.85 5.40 0.95 2.20 1.50 2.50 3.75 1.90 1 -0.30 1.05 -0.35 0.30 -2.10 -1.60 -4 -6.05 -7.15 -12.15 -8.65 -4.10 -1.05 -20.20 -0.90 -24.65 0.20 -9.45 2.35 -13.70 7.50 -11.15 13.55 1.75 4.20 7.45 6.30 21.05 7.80 13.75 1.50 18.50 2.40 21.20 4.05 1.40 0.85 1.55 1.15 1.55 3.40 0 4.65 -1.55 6.10 -7.65 7.15 -5.20 0.95 -20.50 0.75 -24.35 -0.25 -4.15 -1.10 -7.10 -3.10 -7.80 -5.35 -0.50 -1.60 -0.75 -1.75 -2.70 -1.90 -2 -0.15 -2.05 -0.10 -1.75 1 1.55 5 7 9.05 14.35 10.65 3.80 0.80 16.05 0.95 20.20 0.20z m-167.30 -8.95 l0 -9 17 0 17 0 0 -1.75 0 -1.75 -17 0 -17 0 0 -8 0 -8 19.25 0 19.25 0 0 -1.75 0 -1.75 -21.50 0 -21.50 0 0 20.50 0 20.50 2.25 0 2.25 0 0 -9z m51.10 5.15 l2.20 -3.90 16.95 0 16.95 0 2.20 3.90 c2.10 3.80 2.20 3.85 4.15 3.85 l2 0 -2 -3.60 c-1.10 -2 -6.15 -11.20 -11.20 -20.40 l-9.20 -16.75 -2.85 0 -2.85 0 -9.50 17.25 c-5.25 9.50 -10.30 18.65 -11.25 20.40 l-1.75 3.10 2 0 c1.95 0 2 -0.05 4.15 -3.85z m62.90 -16.65 l0 -20.50 -2.25 0 -2.25 0 0 20.50 0 20.50 2.25 0 2.25 0 0 -20.50z m85.10 16.65 l2.20 -3.90 16.95 0 16.95 0 2.20 3.90 c2.10 3.80 2.20 3.85 4.15 3.85 l2 0 -2 -3.60 c-1.10 -2 -6.15 -11.20 -11.20 -20.40 l-9.20 -16.75 -2.85 0 -2.85 0 -9.35 17 c-5.15 9.35 -10.20 18.50 -11.25 20.40 l-1.85 3.35 2 0 c1.90 0 2 -0.05 4.10 -3.85z m99.40 1.85 l0 -2 -18.25 0 -18.25 0 0 -18.50 0 -18.50 -2.25 0 -2.25 0 0 20.50 0 20.50 20.50 0 20.50 0 0 -2z"/>
  <path d="M255.85 236.20 c-0.80 -0.80 -0.25 -3.30 1.35 -6.30 0.95 -1.70 3.40 -6.20 5.45 -9.90 l3.75 -6.75 1.85 0 1.85 0 5.50 9.95 c4.25 7.70 5.40 10.25 5.30 11.50 l-0.15 1.55 -12.30 0.15 c-6.75 0.05 -12.40 -0.05 -12.60 -0.20z"/>
  <path d="M403.85 236.20 c-1.10 -1.10 0.05 -4.05 5.10 -13.20 l5.45 -9.75 1.85 0 1.85 0 5.50 9.95 c4.25 7.70 5.40 10.25 5.30 11.50 l-0.15 1.55 -12.30 0.15 c-6.75 0.05 -12.40 -0.05 -12.60 -0.20z"/>
 </g>
 <g fill="#ffffff">
  <path d="M0 295 l0 -295 340 0 340 0 0 295 0 295 -340 0 -340 0 0 -295z m592 116.80 c10.90 -1.85 15 -5.50 15 -13.40 -0.05 -8.65 -5.25 -11.75 -23 -13.65 -20.80 -2.20 -24.50 -3.30 -24.50 -7.05 0 -2.20 1.75 -3.35 7 -4.55 4.70 -1.05 19.70 -1.20 24.25 -0.20 5.15 1.15 8.75 3.65 8.75 6.10 0 0.85 0.45 0.95 4 0.95 l4 0 0 -1.60 c0 -2.40 -2.05 -6.40 -4.25 -8.35 -4.50 -3.95 -11.45 -5.55 -23.75 -5.55 -12.40 0 -20.20 1.70 -24.45 5.30 -2.85 2.45 -3.70 4.35 -3.70 7.95 -0.05 9.35 4.40 11.75 26.55 14.20 12.85 1.45 18.25 2.65 20.20 4.40 2.25 2 0.05 6 -3.90 7.10 -3.95 1.15 -10.55 1.65 -17.20 1.40 -11.20 -0.50 -15.95 -2.50 -17.75 -7.50 -0.55 -1.45 -0.60 -1.45 -4.25 -1.45 l-3.75 0 0.15 1.95 c0.35 4.45 3.85 9.05 8.85 11.50 1.90 0.95 6.95 2.40 9.75 2.85 3.40 0.50 18.15 0.25 22 -0.40z m-518.40 -18.15 l0.15 -18.35 11.15 18.35 11.20 18.35 4.60 0 4.60 0 11.20 -18.25 c6.15 -10.05 11.30 -18.25 11.45 -18.25 0.15 0 0.30 8.15 0.30 18.15 l0 18.10 3.90 0 c2.10 0 3.85 -0.15 3.85 -0.35 0 -0.25 0 -10.75 0 -23.40 l0 -23 -5.50 0 -5.45 0 -1.45 2.15 c-0.80 1.15 -6.25 9.95 -12.10 19.50 -9.30 15.15 -10.80 17.30 -11.35 16.60 -0.30 -0.50 -5.70 -9.30 -11.95 -19.55 l-11.35 -18.70 -5.70 0 -5.65 0 0 23.50 0 23.50 4 0 4 0 0.10 -18.35z m131.65 14.85 l0 -3.25 -20.75 -0.25 -20.75 -0.25 0 -6 0 -6 18.40 -0.15 18.35 -0.10 0 -3.50 0 -3.50 -18.50 0 -18.55 0 0.15 -6.60 0.15 -6.65 20.75 -0.25 20.75 -0.25 0 -3.25 0 -3.25 -24.65 0 -24.60 0 0 23 c0 12.65 0 23.15 0 23.40 0 0.20 11.10 0.30 24.65 0.25 l24.60 -0.15 0 -3.25z m51.25 3 c12.25 -1.30 18.55 -4.70 21.35 -11.50 0.75 -1.90 0.90 -3.65 0.90 -11 0 -7.95 -0.10 -9 -1.15 -11.60 -2.10 -5.20 -6.80 -8.85 -13.85 -10.65 -5.40 -1.40 -12.25 -1.80 -28.15 -1.65 l-15.60 0.15 0 23 c0 12.65 0 23.15 0 23.40 0 0.55 31 0.40 36.50 -0.15z m46.65 -0.10 c-0.10 -0.25 -0.15 -10.75 -0.15 -23.40 l0 -23.05 -3.75 0.15 -3.80 0.15 0.05 23.15 c0 12.70 0 23.20 0 23.35 0 0.15 1.75 0.25 3.90 0.15 2.10 -0.10 3.80 -0.30 3.75 -0.50z m40.25 -19.25 l0.10 -19.65 11.55 0 11.50 0 -0.15 -3.60 -0.15 -3.65 -26.85 -0.15 -26.90 -0.10 0 3.75 0 3.75 11.50 0 11.50 0 0 19.75 0 19.80 3.90 -0.15 3.85 -0.15 0.15 -19.60z m34.55 15.50 l2.30 -4.15 16.50 0 16.50 0 2.30 4.15 2.30 4.10 3.90 0.15 c5.30 0.20 5.55 0.05 4.10 -2.25 -0.65 -1.05 -6.45 -11.50 -12.90 -23.25 l-11.70 -21.40 -4.50 0 -4.50 0.05 -10.75 19.55 c-5.90 10.80 -11.70 21.30 -12.85 23.35 -1.20 2.05 -2.15 3.80 -2.15 3.90 0 0.10 2.05 0.10 4.55 0.05 l4.60 -0.15 2.30 -4.10z m80.05 -15.40 l0 -19.75 11.50 0 11.50 0 0 -3.75 0 -3.75 -26.65 0 c-14.70 0 -26.80 0.10 -26.90 0.20 -0.10 0.10 -0.15 1.80 -0.05 3.75 l0.20 3.55 11.20 0 11.20 0 0 19.40 c0 10.70 0.15 19.60 0.35 19.75 0.15 0.20 1.95 0.35 4 0.35 l3.65 0 0 -19.75z m82 16.25 l0 -3.50 -20.75 0 -20.75 0 0 -6.25 0 -6.25 18.25 0 18.25 0 0 -3.50 0 -3.50 -18.25 0 -18.25 0 0 -6.75 0 -6.75 20.75 0 20.75 0 0 -3.50 0 -3.50 -24.75 0 -24.75 0 0 23.50 0 23.50 24.75 0 24.75 0 0 -3.50z m-20.35 -190.90 l0.10 -65.10 -178.85 0 c-98.40 0 -179.05 0.05 -179.25 0.15 -0.45 0.10 -0.80 129.20 -0.35 129.90 0.15 0.25 75.45 0.40 179.25 0.35 l178.95 -0.15 0.15 -65.15z"/>
  <path d="M227.60 388.40 l0.15 -15.65 9.75 -0.05 c18.55 -0.15 25.65 0.95 29.90 4.55 1.50 1.35 2.30 2.50 2.85 4.35 0.90 3.05 1 11.70 0.20 14.65 -0.80 2.90 -3.15 4.95 -7.20 6.30 -3.30 1.05 -4.50 1.15 -19.65 1.35 l-16.10 0.20 0.10 -15.70z"/>
  <path d="M384.90 395.75 c-0.15 -0.15 2.30 -4.95 5.40 -10.65 3.15 -5.70 5.75 -10.55 5.85 -10.80 0.10 -0.25 0.40 -0.35 0.70 -0.15 0.65 0.40 11.65 20.55 11.65 21.30 0 0.55 -23.05 0.85 -23.60 0.30z"/>
  <path d="M349.45 250.45 c-12.05 -0.80 -19.30 -5.55 -20.70 -13.60 l-0.30 -1.90 3.85 0.15 3.80 0.15 0.60 1.75 c0.70 2.25 3.65 4.25 7.80 5.35 2.40 0.65 5.20 0.85 10.75 0.80 11.10 0 16.45 -1.20 17.70 -3.95 0.90 -2.05 0.65 -3.15 -1 -4.15 -2.70 -1.65 -7.50 -2.55 -21.20 -4.05 -15.35 -1.70 -20.45 -4 -21.70 -9.95 -1.55 -7.30 2.35 -12.05 11.80 -14.40 4.50 -1.15 23.45 -1.25 27.65 -0.20 6.25 1.60 10.35 4.50 12.05 8.45 1.95 4.50 1.25 5.60 -3.65 5.60 -2.30 0 -2.40 -0.05 -3.30 -2.20 -1.80 -3.95 -6.55 -5.35 -18.35 -5.35 -8.70 0 -13.65 0.65 -16.50 2.20 -1.70 0.95 -2 1.35 -2 2.80 0 3.35 3.10 4.35 18.95 6.05 13.60 1.50 17.55 2.40 21.40 4.85 5.55 3.45 5.40 13.70 -0.25 17.60 -5 3.35 -14.85 4.80 -27.40 4z"/>
  <path d="M192 228 l0 -22 23.15 0.10 23.10 0.15 -0.05 1.25 c-0.05 0.70 -0.10 2.10 -0.15 3.15 l-0.05 1.85 -19.25 0 -19.25 0 0 6.50 0 6.50 17 0 17 0 0 3.25 0 3.25 -17 0 -17 0 0 9 0 9 -3.75 0 -3.75 0 0 -22z"/>
  <path d="M240 249.85 c0 -0.10 3.20 -6 7.15 -13.15 3.95 -7.10 9.35 -16.95 12.05 -21.85 l4.90 -8.90 4.25 0.15 4.30 0.15 11.90 21.70 c6.60 11.95 11.95 21.80 11.95 21.90 0 0.10 -1.90 0.15 -4.20 0.15 l-4.25 0 -2.15 -3.85 -2.20 -3.90 -15.45 0 -15.45 0 -2.20 3.90 -2.15 3.85 -4.25 0 c-2.30 0 -4.20 -0.10 -4.20 -0.15z m39.15 -15.20 c0.25 -0.50 -10.20 -19.60 -10.80 -19.80 -0.40 -0.10 -3.65 5.50 -9.60 16.50 -0.90 1.70 -1.55 3.20 -1.35 3.35 0.40 0.45 21.50 0.35 21.75 -0.05z"/>
  <path d="M306 228 l0 -22 3.75 0 3.75 0 0 22 0 22 -3.75 0 -3.75 0 0 -22z"/>
  <path d="M388.10 249.60 c0.10 -0.20 1.80 -3.40 3.85 -7.10 2.05 -3.70 7.40 -13.40 11.85 -21.50 l8.15 -14.75 4.35 0 4.35 0 11.90 21.70 c6.60 11.95 11.95 21.80 11.95 21.90 0 0.10 -1.90 0.15 -4.20 0.15 l-4.25 0 -2.15 -3.85 -2.20 -3.90 -15.45 0 -15.45 0 -2.20 3.90 -2.15 3.85 -4.25 0 c-2.35 0 -4.20 -0.15 -4.10 -0.40z m39.05 -14.95 c0.30 -0.55 -10.30 -19.65 -10.90 -19.65 -0.60 0 -11.25 19.10 -10.90 19.65 0.10 0.20 5 0.35 10.90 0.35 5.90 0 10.80 -0.15 10.90 -0.35z"/>
  <path d="M454 228 l0 -22 3.75 0 3.75 0 0 18.50 0 18.50 18.20 0 18.20 0 0.20 3.30 c0.05 1.80 0.05 3.40 -0.05 3.50 -0.10 0.10 -10.10 0.20 -22.15 0.20 l-21.90 0 0 -22z"/>
 </g>
</svg>